# xmcd
#
# Track frame offsets: 
#        150
#        8911
#        44508
#        96683
#        120166
#
# Disc length: 2661 seconds
#
# Revision: 0
# Processed by: cddbd v1.5.2PL0 Copyright (c) Steve Scherf et al.
# Submitted via: ExactAudioCopy v0.99pb4
#
DISCID=3a0a6305
DTITLE=John Mayall - Ten Years Are Gone [Disc 2]
DYEAR=1973
DGENRE=Blues
TTITLE0=Introduction
TTITLE1=Sitting Here Thinking
TTITLE2=Harmonica Free Form
TTITLE3=Burning Sun
TTITLE4=Dark Of The Night
EXTD=
EXTT0=
EXTT1=
EXTT2=
EXTT3=
EXTT4=
PLAYORDER=
